<svg width="96" height="96" viewBox="0 0 96 96" fill="none" xmlns="http://www.w3.org/2000/svg">
<path opacity="0.1" d="M0 40C0 21.1438 0 11.7157 5.85786 5.85786C11.7157 0 21.1438 0 40 0H56C74.8562 0 84.2843 0 90.1421 5.85786C96 11.7157 96 21.1438 96 40V56C96 74.8562 96 84.2843 90.1421 90.1421C84.2843 96 74.8562 96 56 96H40C21.1438 96 11.7157 96 5.85786 90.1421C0 84.2843 0 74.8562 0 56V40Z" fill="#2ED9FF"/>
<path d="M60 52V57.3333C60 58.0406 59.719 58.7189 59.219 59.219C58.7189 59.719 58.0406 60 57.3333 60H38.6667C37.9594 60 37.2811 59.719 36.781 59.219C36.281 58.7189 36 58.0406 36 57.3333V52" stroke="#2142B2" stroke-width="2" stroke-linecap="round" stroke-linejoin="round"/>
<path d="M54.6668 42.6667L48.0002 36L41.3335 42.6667" stroke="#2ED9FF" stroke-width="2" stroke-linecap="round" stroke-linejoin="round"/>
<path d="M48 36V52" stroke="#2ED9FF" stroke-width="2" stroke-linecap="round" stroke-linejoin="round"/>
</svg>
